<svg id="Capa_1" data-name="Capa 1" xmlns="http://www.w3.org/2000/svg" viewBox="0 0 1500 1500"><defs><style>.cls-1{fill:#313131;}.cls-2{fill:#fdfdfd;}.cls-3{fill:#4e4e4e;}</style></defs><path class="cls-1" d="M499.39,1237.84h508.28c40.89,0,75-36.28,76.11-77.16,0-.84,0-1.69,0-2.54q.36-351.1.09-702.23c0-48-40.26-92.52-88.11-95.3-35-2-70.25-.54-105.38-1.12-3,0-7.57-3.2-8.6-6-10.47-28.13-30-48-55.12-63.37a17.58,17.58,0,0,1-7.32-10.92c-5.86-38.32-35.78-64.16-74.52-63.67-36.25.46-66.59,28.55-71,65.39a10.1,10.1,0,0,1-4.76,6.68c-29.31,14.64-50.9,36.42-63.92,66.72-1.08,2.49-5.74,4.84-8.76,4.88-27.58.39-55.17-.11-82.74.33-62.84,1-103.82,43-103.78,106q.09,130.69.13,261.41,0,212.35-.22,424.7a60.17,60.17,0,0,0,2,14.63C421.72,1206.21,458.22,1237.84,499.39,1237.84ZM643.6,408.92c1-39.71,30.16-74.11,72.66-84.49,8.36-2,11-5.13,10.19-13.48a159.45,159.45,0,0,1,0-25.58c.68-11.18,9.44-18.86,20.38-18.67,10.38.17,20.49,9.51,20.82,19.77.3,9.5-.53,19.07.27,28.51.27,3.13,3.48,7.64,6.35,8.65,23.07,8.06,43.95,18.76,56.24,41.36,10.67,15.85,8.74,35.71-5.78,41.79-6.61,2.77-15.69-.35-23.64-.81-5-5.8-10.31-11.43-15.11-17.43-12.82-16-30-20.21-49.18-17.66-17,2.27-30.27,10.66-36.83,27.35-7,17.84-.73,37.39,17.14,44.13,17.1,6.44,35.73,8.81,53.64,13.18,7.32,1.78,14.51,4.1,21.76,6.18,38.91,11,65,46,62.15,83.45-3.17,41.53-37.19,78.52-76.73,83.44-6.24,1.34-12.3,2.86-10.31,11.55,0,7.51,1.8,15.59-.41,22.37-2.08,6.39-7.35,14.05-13.1,16.26-5.54,2.14-13.49-2-20.38-3.35-10.72-10-7.27-23.11-7.24-35.15,0-7.33-1.69-10.3-9.17-12.14-26.79-6.57-49.89-19.52-66-42.75-6.65-9.6-10.29-21.18-1.85-30.33,5.22-5.66,15.58-10.12,22.94-9.25,7.57.9,15.34,7.93,21.21,14,21.54,22.34,47.15,28.48,76.22,20.07,19.76-5.72,29.76-19.78,28.81-37.28-1-18-13.3-31.61-33.08-35.67-18.12-3.72-36.81-5.28-54.45-10.51C668.59,483.82,642.56,449,643.6,408.92ZM788.22,749.85l-61.86,0c-11.39.29-22.78.74-34.17.84-13,.12-20.79-7.31-21.22-20.4-.28-8.48.09-17,.17-25.45V668.32l3.52-1.5c7.68,47.6,37.23,69.58,82.31,66.27,35.79-2.62,57.06-25.4,63.08-61.63v50.83C821,746.34,814.74,751.72,788.22,749.85ZM671.05,798.69c0-1.12.84-2.23,1.28-3.35l12.89-11.92,61.95-.95c17.3-.07,34.6-.39,51.88-.13,12.25.19,20.46,8.81,20.57,21.07q.4,42.38.48,84.75c0,15.43-7.49,23-22.66,23-19.73,0-39.46-.1-59.19-.16-16.34.06-32.68.2-49,.15-10.94,0-17.71-6.75-18-16.55C670.44,862.62,671,830.65,671.05,798.69Zm0,160.37c0-1.36.83-2.73,1.27-4.09,5.73-15.15,18.57-13.24,30.78-12.85h23.58c24.16-.07,48.33-.56,72.47.13,5.11.15,10.1,4.66,15.14,7.16,2,4.76,5.64,9.49,5.73,14.28.51,29,.39,58,.12,87.05-.13,13.78-7.49,22.23-20.82,22.43-36.57.54-73.15.28-109.72.27-1.4,0-2.81-.7-4.21-1.07-4.82-5.48-13.58-10.79-13.81-16.45C670.25,1023.67,671,991.35,671,959.06ZM457,464.58c.51-30.73,24-55.07,54.57-55.8,24.39-.58,48.8-.47,73.18.17,2.91.08,7.43,5,8.21,8.42,2.34,10.15,3.19,20.63,4.62,31,8.85,17.69,17.78,35.35,26.41,53.15.85,1.76.81,5.18-.34,6.48-5.92,6.71-12.33,13-18.57,19.41-13.86,28.07-15.66,56,1.26,83.56l7.46,13.18c7.62,7.13,15.41,14.08,22.71,21.51,1.57,1.6,1.93,4.91,1.95,7.44q.3,37.89.26,75.77c0,14-6.2,21-20.06,21.46s-27.62-.1-41.43-.22L556.66,750c-14.78.15-29.57.73-44.33.2-5.25-.19-10.41-3.09-15.61-4.76l-7.23,16.37q.75,8,1.48,15.92l7.33,9.18c2.75-1.15,5,3.62,7.7,2.47,24.51-.32,49.55-6.56,74.06-6.88,12.89-.06,25.79-.39,38.67-.1,9.43.22,16.23,4.59,18.56,14.36.42,11.64,1.09,23.27,1.22,34.9q.32,28.5,0,57c-.16,16.36-6.55,22.62-22.68,22.59-14.86,0-29.71-.21-44.57-.32l-60,.11-14.86-5.56c-9.86,13-10.7,39.75.12,46.83,7.71-1,17.19-6.36,24.9-7.35,3.48,0,6.94-2.85,10.42-2.86,28.73-.06,57.46-.24,86.19-.05,3.43,0,6.85,2,10.27,3.05,3.45,6.32,9.66,12.55,9.89,19,1,29.71.61,59.48.31,89.22-.1,10.17-5.64,18.8-15.72,19-38.68.77-77.38.14-116.08,0q-5.85-3.64-11.72-7.27c-5.41,10.21.6,22.15,13.39,23.12,20.14,1.52,40.43,1.33,60.66,1.55,23.18.26,46.36.17,69.55.23l115.76,0,89.27-.23c3.83-.46,7.67-1.35,11.5-1.32,38,.36,75.94,1,113.91,1.26a100.42,100.42,0,0,0,18.86-1.8c11-2.06,15.78-10.33,13.74-17.39L943.16,1072c-23.87.1-47.73.09-71.6.37-10.43.12-18.39-5.12-18.67-14.67-1-33.72-.41-67.49-.42-101.25,3.15-12.64,9.57-15.5,32-14.28,32.86-.09,65.72-.48,98.57.06,4.86.07,9.66,4.55,14.48,7,12.92-10.17,13.6-34,1.27-44.22-6,2.08-12,5.86-18,6-36,.59-72,.42-108.06.22-3.87,0-7.74-1.85-11.61-2.84-2.84-4.53-8-9-8.15-13.59-.77-31.78-.49-63.59-.44-95.39,0-1.83,1-3.65,1.49-5.48l12.94-10.41,70.52-1c15.19-.08,30.41-.63,45.57,0,4.87.22,9.61,3.68,14.4,5.67,13.93-9.45,14.1-36.21.3-44-5.76,2-11.43,5.4-17.28,5.76-13.29.81-26.67.13-40,0l-29.28,0c-13.63.11-27.27.16-40.9.35-10.06.15-16.65-5.94-17.2-14.55-1.24-19.6-.4-39.33-.41-59-4.45-19.62,4.23-33.7,18.48-46,5.41-4.69,9.25-11.19,13.81-16.87,19-14.69,20-36.23,21.79-57.42.8-9.66,1-19.37,1.41-29.06-2.31-8-3.69-16.48-7.11-24-8.77-19.3-18.43-38.19-28-57.71l10.1-.51c1-10,1.64-20.08,3.34-30,.42-2.45,4.33-6.14,6.66-6.15,31.68-.22,63.42-.93,95,.69,20.85,1.07,35,14.52,44.5,32.67,1.95,10.42,5.57,20.83,5.59,31.25q.48,333,.28,666.12c0,27.24-6.59,51.09-32.9,64.38-7.59,3.83-16.57,6.58-25,6.8-30,.8-60,.3-90,.29l-171.42-.11c-69,.06-138,.39-207-.14-8.54-.06-17-4.64-25.56-7.13-19.15-11.76-29.56-28.6-29.56-51.34q0-126.64.17-253.29-.17-197.59-.32-395.21C456.83,490.92,456.74,477.75,457,464.58Z"/><path class="cls-2" d="M777.89,628.61c-6.24,1.34-12.3,2.86-10.31,11.55l-33.89,35.28c-10.72-10-7.27-23.11-7.24-35.15,0-7.33-1.69-10.3-9.17-12.14-26.79-6.57-49.89-19.52-66-42.75-6.65-9.6-10.29-21.18-1.85-30.33,5.22-5.66,15.58-10.12,22.94-9.25,7.57.9,15.34,7.93,21.21,14,21.54,22.34,47.15,28.48,76.22,20.07,19.76-5.72,29.76-19.78,28.81-37.28-1-18-13.3-31.61-33.08-35.67-18.12-3.72-36.81-5.28-54.45-10.51-42.52-12.63-68.55-47.43-67.51-87.53,1-39.71,30.16-74.11,72.66-84.49,8.36-2,11-5.13,10.19-13.48a159.45,159.45,0,0,1,0-25.58c.68-11.18,9.44-18.86,20.38-18.67,10.38.17,20.49,9.51,20.82,19.77.3,9.5-.53,19.07.27,28.51.27,3.13,3.48,7.64,6.35,8.65,23.07,8.06,43.95,18.76,56.24,41.36l-29.42,41c-5-5.8-10.31-11.43-15.11-17.43-12.82-16-30-20.21-49.18-17.66-17,2.27-30.27,10.66-36.83,27.35-7,17.84-.73,37.39,17.14,44.13,17.1,6.44,35.73,8.81,53.64,13.18,7.32,1.78,14.51,4.1,21.76,6.18,5.24,6.36,10.09,13.09,15.77,19,26.3,27.5,32,67,11.57,96.53C807.28,595.39,792,611.56,777.89,628.61Z"/><path class="cls-2" d="M777.89,628.61c14.07-17.05,29.39-33.22,41.92-51.33,20.4-29.51,14.73-69-11.57-96.53-5.68-5.94-10.53-12.67-15.77-19,38.91,11,65,46,62.15,83.45C851.45,586.7,817.43,623.69,777.89,628.61Z"/><path class="cls-2" d="M801.05,406l29.42-41c10.67,15.85,8.74,35.71-5.78,41.79C818.08,409.55,809,406.43,801.05,406Z"/><path class="cls-2" d="M733.69,675.44l33.89-35.28c0,7.51,1.8,15.59-.41,22.37-2.08,6.39-7.35,14.05-13.1,16.26C748.53,680.93,740.58,676.81,733.69,675.44Z"/><path class="cls-3" d="M719.16,1211.2l171.42.11c30,0,60,.51,90-.29,8.43-.22,17.41-3,25-6.8,26.31-13.29,32.91-37.14,32.9-64.38q-.12-333.06-.28-666.12c0-10.42-3.64-20.83-5.59-31.25-9.52-18.15-23.65-31.6-44.5-32.67-31.61-1.62-63.35-.91-95-.69-2.33,0-6.24,3.7-6.66,6.15-1.7,9.89-2.32,20-3.34,30l-10.1.51c9.54,19.52,19.2,38.41,28,57.71,3.42,7.52,4.8,16,7.11,24-.45,9.69-.61,19.4-1.41,29.06-1.75,21.19-2.81,42.73-21.79,57.43h0c-4.56,5.67-8.4,12.17-13.81,16.86-14.25,12.33-22.93,26.41-18.48,46,0,19.68-.83,39.41.41,59,.55,8.61,7.14,14.7,17.2,14.55,13.63-.19,27.27-.24,40.9-.35h0l29.28,0c13.34.08,26.72.76,40,0,5.85-.36,11.52-3.75,17.28-5.76h0c13.8,7.74,13.63,34.5-.3,44-4.79-2-9.53-5.45-14.4-5.67-15.16-.68-30.38-.13-45.57,0h0L872.46,779,854,793.89h0c-.52,1.83-1.49,3.65-1.49,5.48-.05,31.8-.33,63.61.44,95.39.11,4.59,5.31,9.06,8.15,13.59,3.87,1,7.74,2.82,11.61,2.84,36,.2,72.05.37,108.06-.22,6-.1,12-3.88,18-6,12.33,10.26,11.65,34-1.27,44.22-4.82-2.45-9.62-6.93-14.48-7-32.85-.54-65.71-.15-98.57-.06-22.39-1.22-28.81,1.64-32,14.28,0,33.76-.59,67.53.42,101.25.28,9.55,8.24,14.79,18.67,14.67,23.87-.28,47.73-.27,71.6-.37l58.49-1.54c2,7.06-2.75,15.33-13.74,17.39a100.42,100.42,0,0,1-18.86,1.8c-38-.29-75.94-.9-113.91-1.26-3.83,0-7.67.86-11.51,1.32,9.71,0,19.43,0,29.14,0-9.71,0-19.43.07-29.13,0l-89.27.23-115.77,0c-.39.36-.79.81-1.2,1.27.41-.46.81-.91,1.2-1.27-23.18-.06-46.36,0-69.54-.23-20.23-.22-40.52,0-60.66-1.55-12.79-1-18.8-12.91-13.39-23.12-.12-.41-.26-.82-.41-1.23l.33,1,7,6.66a29.37,29.37,0,0,0,10.5.9c36.8.14,73.61.67,110.39-.06,10.08-.21,15.62-8.84,15.72-19,.3-29.74.74-59.51-.31-89.22-.23-6.44-6.44-12.67-9.89-19-3.42-1.07-6.84-3-10.27-3.05-28.73-.19-57.46,0-86.19.05,7.53.22,15.07.38,22.6.59-7.53-.21-15.07-.37-22.6-.59-3.48,0-6.56,1.3-10,1.31-7.71,1-15.45,4.4-23.53,1.68-4.69-1.57-7.89-10.28-7.83-19.85A15.31,15.31,0,0,1,511.15,911l.14,0,1.48-.82-1.48.82,60-.11c14.86.11,29.71.3,44.57.32,16.13,0,22.52-6.23,22.68-22.59q.27-28.5,0-57c-.13-11.63-.8-23.26-1.22-34.9-2.33-9.77-9.13-14.14-18.56-14.36-12.88-.29-25.78,0-38.67.1-15.6.2-45.94,1-66.76,1.12A23.79,23.79,0,0,1,489.52,762l0-.21h0l.4-.92A19,19,0,0,1,510.37,750a16.25,16.25,0,0,0,2,.19c14.76.53,29.55,0,44.33-.2l20.52.13c13.81.12,27.64.71,41.43.22s20-7.45,20.06-21.46q.08-37.89-.26-75.77c0-2.53-.38-5.84-1.95-7.44-7.3-7.43-15.09-14.38-22.71-21.51L606.29,611c-16.92-27.6-15.12-55.49-1.26-83.56,6.24-6.42,12.65-12.7,18.57-19.41,1.15-1.3,1.19-4.72.34-6.48-8.63-17.8-17.56-35.46-26.41-53.15-1.43-10.36-2.28-20.84-4.62-31-.78-3.39-5.3-8.34-8.21-8.42-24.38-.64-48.79-.75-73.18-.17-30.56.73-54.06,25.07-54.57,55.8-.21,13.17-.12,26.34-.11,39.51q.15,197.61.32,395.21h0q-.09,126.65-.17,253.29c0,22.74,10.41,39.58,29.56,51.34,8.52,2.49,17,7.07,25.56,7.13,69,.53,138,.2,207,.14"/><path class="cls-3" d="M689.22,911.1c16.35,0,32.69-.09,49-.15,19.73.06,39.46.15,59.19.16,15.17,0,22.69-7.52,22.66-23q-.08-42.37-.48-84.75c-.11-12.26-8.32-20.88-20.57-21.07-17.28-.26-34.58.06-51.88.13l13.36,1.7-13.36-1.7-61.95.95h0l-12.89,11.92c-.44,1.12-1.28,2.23-1.28,3.35-.09,32-.61,63.93.21,95.86C671.51,904.35,678.28,911.07,689.22,911.1Z"/><path class="cls-3" d="M685.38,1072.36h0c1.4.37,2.81,1.07,4.21,1.07,36.57,0,73.15.27,109.72-.27,13.33-.2,20.69-8.65,20.82-22.43.27-29,.39-58-.12-87.05-.09-4.79-3.73-9.52-5.73-14.28-5-2.5-10-7-15.14-7.16-24.14-.69-48.31-.2-72.47-.13H703.09c-12.21-.39-25.05-2.3-30.78,12.85-.44,1.36-1.26,2.73-1.27,4.09-.09,32.29-.79,64.61.53,96.85C671.8,1061.57,680.56,1066.88,685.38,1072.36Z"/><path class="cls-3" d="M692.19,750.71c11.39-.1,22.78-.55,34.17-.84l61.86,0c26.52,1.87,32.73-3.51,31.83-27.56V671.46c-6,36.23-27.29,59-63.08,61.63-45.08,3.31-74.63-18.67-82.31-66.27l-3.52,1.5v36.54c-.08,8.48-.45,17-.17,25.45C671.4,743.4,679.2,750.83,692.19,750.71Z"/></svg>